<?xml version="1.0" encoding="UTF-8"?>
<svg version="1.1" xmlns="http://www.w3.org/2000/svg" width="100" height="100">
<path d="M0 0 C9.40707465 5.68464327 15.68680199 13.83643636 18.546875 24.5390625 C19.81816587 35.18018906 19.08411233 45.14253855 13.546875 54.5390625 C12.556875 55.5290625 12.556875 55.5290625 11.546875 56.5390625 C13.031875 57.0340625 13.031875 57.0340625 14.546875 57.5390625 C14.546875 58.8590625 14.546875 60.1790625 14.546875 61.5390625 C13.226875 61.5390625 11.906875 61.5390625 10.546875 61.5390625 C10.216875 60.8790625 9.886875 60.2190625 9.546875 59.5390625 C9.01320313 59.99796875 8.47953125 60.456875 7.9296875 60.9296875 C-2.56169886 69.56965274 -11.91574525 71.83539098 -25.31445312 70.80957031 C-34.8744138 69.60038807 -42.8797787 64.22976046 -48.828125 56.828125 C-51.453125 53.09114583 -51.453125 53.09114583 -51.453125 50.5390625 C-52.2575 50.5596875 -53.061875 50.5803125 -53.890625 50.6015625 C-56.453125 50.5390625 -56.453125 50.5390625 -57.453125 49.5390625 C-57.578125 46.5390625 -57.578125 46.5390625 -57.453125 43.5390625 C-56.958125 43.0440625 -56.958125 43.0440625 -56.453125 42.5390625 C-56.37687052 40.5797461 -56.30610979 38.62003955 -56.26513672 36.65966797 C-55.96707395 24.96481162 -53.82146128 15.03480794 -45.4765625 6.2890625 C-32.87910695 -4.60603419 -15.10756629 -7.47031593 0 0 Z " fill="#CDE0F2" transform="translate(68.453125,16.4609375)"/>
<path d="M0 0 C1.15757813 -0.00257812 2.31515625 -0.00515625 3.5078125 -0.0078125 C4.72210938 -0.00007813 5.93640625 0.00765625 7.1875 0.015625 C8.40179688 0.00789063 9.61609375 0.00015625 10.8671875 -0.0078125 C12.60355469 -0.00394531 12.60355469 -0.00394531 14.375 0 C15.44105469 0.00225586 16.50710937 0.00451172 17.60546875 0.00683594 C20.1875 0.265625 20.1875 0.265625 22.1875 2.265625 C22.52083333 7.59895833 22.52083333 7.59895833 21.1875 10.265625 C15.2475 10.265625 9.3075 10.265625 3.1875 10.265625 C3.1875 13.565625 3.1875 16.865625 3.1875 20.265625 C3.96996094 20.25402344 4.75242187 20.24242188 5.55859375 20.23046875 C6.57050781 20.22144531 7.58242188 20.21242188 8.625 20.203125 C9.63433594 20.19152344 10.64367187 20.17992188 11.68359375 20.16796875 C14.1875 20.265625 14.1875 20.265625 15.1875 21.265625 C15.3125 24.765625 15.3125 24.765625 15.1875 28.265625 C14.1875 29.265625 14.1875 29.265625 11.68359375 29.36328125 C10.67425781 29.35167969 9.66492188 29.34007813 8.625 29.328125 C7.61308594 29.31910156 6.60117187 29.31007813 5.55859375 29.30078125 C4.38490234 29.28337891 4.38490234 29.28337891 3.1875 29.265625 C3.22230469 30.54179688 3.25710937 31.81796875 3.29296875 33.1328125 C3.32110231 34.80207021 3.34840293 36.4713421 3.375 38.140625 C3.41270508 39.40326172 3.41270508 39.40326172 3.45117188 40.69140625 C3.46567383 41.89990234 3.46567383 41.89990234 3.48046875 43.1328125 C3.50403442 44.24825439 3.50403442 44.24825439 3.52807617 45.38623047 C3.41568604 46.00643066 3.3032959 46.62663086 3.1875 47.265625 C0.1875 49.265625 0.1875 49.265625 -3.4375 48.953125 C-6.8125 48.265625 -6.8125 48.265625 -7.8125 47.265625 C-7.91572198 45.86437163 -7.9509943 44.4580123 -7.95776367 43.05297852 C-7.96414352 42.15857559 -7.97052338 41.26417267 -7.97709656 40.34266663 C-7.97820938 39.36978195 -7.9793222 38.39689728 -7.98046875 37.39453125 C-7.98379715 36.40186752 -7.98712555 35.4092038 -7.99055481 34.38645935 C-7.9956284 32.2823025 -7.997963 30.17813757 -7.99780273 28.07397461 C-7.9999883 24.84540617 -8.01813699 21.61717973 -8.03710938 18.38867188 C-8.04004332 16.34895951 -8.04202811 14.30924551 -8.04296875 12.26953125 C-8.05015427 11.29867081 -8.05733978 10.32781036 -8.06474304 9.32752991 C-8.06166641 8.42997482 -8.05858978 7.53241974 -8.05541992 6.60766602 C-8.05684494 5.81570328 -8.05826996 5.02374054 -8.05973816 4.20777893 C-7.45451338 -0.54650209 -3.91232828 0.00827881 0 0 Z " fill="#2F78C1" transform="translate(42.8125,25.734375)"/>
<path d="M0 0 C3.95827235 -0.05785647 7.9164367 -0.09354717 11.875 -0.125 C13.00292969 -0.14175781 14.13085938 -0.15851562 15.29296875 -0.17578125 C16.36933594 -0.18222656 17.44570313 -0.18867188 18.5546875 -0.1953125 C19.54968262 -0.20578613 20.54467773 -0.21625977 21.56982422 -0.22705078 C24 0 24 0 26 2 C26.33333333 7.33333333 26.33333333 7.33333333 25 10 C19.06 10 13.12 10 7 10 C7 13.3 7 16.6 7 20 C7.78246094 19.98839844 8.56492187 19.97679688 9.37109375 19.96484375 C10.38300781 19.95582031 11.39492188 19.94679688 12.4375 19.9375 C13.44683594 19.92589844 14.45617187 19.91429688 15.49609375 19.90234375 C18 20 18 20 19 21 C19.125 24.5 19.125 24.5 19 28 C18 29 18 29 15.49609375 29.09765625 C14.48675781 29.08605469 13.47742188 29.07445313 12.4375 29.0625 C11.42558594 29.05347656 10.41367187 29.04445313 9.37109375 29.03515625 C8.19740234 29.01775391 8.19740234 29.01775391 7 29 C7.03480469 30.27617188 7.06960937 31.55234375 7.10546875 32.8671875 C7.13360231 34.53644521 7.16090293 36.2057171 7.1875 37.875 C7.22520508 39.13763672 7.22520508 39.13763672 7.26367188 40.42578125 C7.27817383 41.63427734 7.27817383 41.63427734 7.29296875 42.8671875 C7.31653442 43.98262939 7.31653442 43.98262939 7.34057617 45.12060547 C7.22818604 45.74080566 7.1157959 46.36100586 7 47 C4 49 4 49 0.375 48.6875 C-3 48 -3 48 -4 47 C-4.0928726 45.58774954 -4.11746772 44.17091066 -4.11352539 42.75561523 C-4.11344986 41.85475693 -4.11337433 40.95389862 -4.11329651 40.02574158 C-4.10813522 39.04658279 -4.10297394 38.06742401 -4.09765625 37.05859375 C-4.0962413 36.06118668 -4.09482635 35.0637796 -4.09336853 34.03614807 C-4.08775114 30.83656876 -4.07519571 27.63705831 -4.0625 24.4375 C-4.05748724 22.27408955 -4.05292395 20.11067801 -4.04882812 17.94726562 C-4.03777607 12.63148675 -4.02102104 7.31574829 -4 2 C-3.01 2 -2.02 2 -1 2 C-1 16.52 -1 31.04 -1 46 C0.98 46 2.96 46 5 46 C5.33 39.73 5.66 33.46 6 27 C9.96 27 13.92 27 18 27 C17.505 24.525 17.505 24.525 17 22 C13.37 21.67 9.74 21.34 6 21 C6 17.04 6 13.08 6 9 C11.94 9 17.88 9 24 9 C24 7.02 24 5.04 24 3 C22.31699331 1.31699331 20.17991273 1.77190923 17.87109375 1.68359375 C16.83662109 1.64169922 15.80214844 1.59980469 14.73632812 1.55664062 C13.64771484 1.51732422 12.55910156 1.47800781 11.4375 1.4375 C10.34501953 1.39431641 9.25253906 1.35113281 8.12695312 1.30664062 C5.41810436 1.20017932 2.70916008 1.09816484 0 1 C0 0.67 0 0.34 0 0 Z " fill="#483437" transform="translate(39,26)"/>
<path d="M0 0 C0.66 0.33 1.32 0.66 2 1 C2 15.52 2 30.04 2 45 C4.64 45 7.28 45 10 45 C8.9375 46.5625 8.9375 46.5625 7 48 C0.55555556 47.55555556 0.55555556 47.55555556 -1 46 C-1.09804851 44.5932478 -1.12798186 43.18164864 -1.12939453 41.77148438 C-1.13254669 40.87385376 -1.13569885 39.97622314 -1.13894653 39.0513916 C-1.1369223 38.07536987 -1.13489807 37.09934814 -1.1328125 36.09375 C-1.13376923 35.0987146 -1.13472595 34.1036792 -1.13571167 33.07849121 C-1.1363936 30.97013282 -1.13453844 28.86177235 -1.13037109 26.75341797 C-1.12502303 23.51394973 -1.13031567 20.27462015 -1.13671875 17.03515625 C-1.13605797 14.99218719 -1.13477681 12.94921822 -1.1328125 10.90625 C-1.13483673 9.93022827 -1.13686096 8.95420654 -1.13894653 7.9486084 C-1.13579437 7.05097778 -1.13264221 6.15334717 -1.12939453 5.22851562 C-1.12859894 4.43433228 -1.12780334 3.64014893 -1.12698364 2.82189941 C-1 1 -1 1 0 0 Z " fill="#45475B" transform="translate(36,27)"/>
<path d="M0 0 C3 0.125 3 0.125 4 1.125 C4.125 4.125 4.125 4.125 4 7.125 C3 8.125 3 8.125 0 8.25 C-3 8.125 -3 8.125 -4 7.125 C-4.125 4.125 -4.125 4.125 -4 1.125 C-3 0.125 -3 0.125 0 0 Z " fill="#F0B319" transform="translate(83,10.875)"/>
<path d="M0 0 C2.5625 0.1875 2.5625 0.1875 4.5625 2.1875 C4.00694444 6.74305556 4.00694444 6.74305556 2.5625 8.1875 C0.0625 8.3125 0.0625 8.3125 -2.4375 8.1875 C-3.4375 7.1875 -3.4375 7.1875 -3.5625 4.1875 C-3.39891479 0.26145498 -3.39891479 0.26145498 0 0 Z " fill="#F9CD5C" transform="translate(14.4375,58.8125)"/>
<path d="M0 0 C1.98 0.495 1.98 0.495 4 1 C3.67 2.32 3.34 3.64 3 5 C1.68 4.67 0.36 4.34 -1 4 C-0.67 2.68 -0.34 1.36 0 0 Z " fill="#F9FBFD" transform="translate(17,51)"/>
<path d="M0 0 C1.32 0 2.64 0 4 0 C4 1.32 4 2.64 4 4 C2.68 4 1.36 4 0 4 C0 2.68 0 1.36 0 0 Z " fill="#77A2CE" transform="translate(23,85)"/>
<path d="M0 0 C1.32 0 2.64 0 4 0 C4 1.32 4 2.64 4 4 C2.68 4 1.36 4 0 4 C0 2.68 0 1.36 0 0 Z " fill="#77A2CE" transform="translate(11,27)"/>
<path d="M0 0 C1.32 0 2.64 0 4 0 C4 1.32 4 2.64 4 4 C2.68 4 1.36 4 0 4 C0 2.68 0 1.36 0 0 Z " fill="#77A2CE" transform="translate(85,22)"/>
<path d="M0 0 C0.66 0 1.32 0 2 0 C2 0.66 2 1.32 2 2 C1.34 2 0.68 2 0 2 C0 1.34 0 0.68 0 0 Z " fill="#F0B318" transform="translate(76,12)"/>
</svg>
